<svg xmlns="http://www.w3.org/2000/svg" width="920" height="540" viewBox="0 0 920 540">
<rect width="100%" height="100%" fill="#ffffff"/>
<style>
text { font-family: "Microsoft YaHei", "SimHei", Arial, sans-serif; fill: #24313d; }
.title { font-size: 24px; font-weight: 700; }
.label { font-size: 15px; }
.small { font-size: 13px; fill: #52606d; }
.axis { stroke: #9aa6b2; stroke-width: 1; }
.grid { stroke: #d8dee6; stroke-width: 1; }
</style>
<text x="460.0" y="38" text-anchor="middle" class="title">三种输入模式实时性能对比</text>
<line x1="95" y1="448.0" x2="850" y2="448.0" class="grid"/>
<text x="83" y="453.0" text-anchor="end" class="small">0.0</text>
<line x1="95" y1="356.5" x2="850" y2="356.5" class="grid"/>
<text x="83" y="361.5" text-anchor="end" class="small">18.6</text>
<line x1="95" y1="265.0" x2="850" y2="265.0" class="grid"/>
<text x="83" y="270.0" text-anchor="end" class="small">37.2</text>
<line x1="95" y1="173.5" x2="850" y2="173.5" class="grid"/>
<text x="83" y="178.5" text-anchor="end" class="small">55.8</text>
<line x1="95" y1="82.0" x2="850" y2="82.0" class="grid"/>
<text x="83" y="87.0" text-anchor="end" class="small">74.4</text>
<line x1="95" y1="448" x2="850" y2="448" class="axis"/>
<rect x="151.8" y="155.2" width="65.4" height="292.8" fill="#2f6f9f" rx="3"/>
<text x="184.5" y="148.2" text-anchor="middle" class="small">59.5</text>
<rect x="224.5" y="364.7" width="65.4" height="83.3" fill="#d08a2e" rx="3"/>
<text x="257.2" y="357.7" text-anchor="middle" class="small">16.9</text>
<text x="220.8" y="478" text-anchor="middle" class="small">Mock</text>
<rect x="403.4" y="302.1" width="65.4" height="145.9" fill="#2f6f9f" rx="3"/>
<text x="436.1" y="295.1" text-anchor="middle" class="small">29.6</text>
<rect x="476.1" y="280.0" width="65.4" height="168.0" fill="#d08a2e" rx="3"/>
<text x="508.9" y="273.0" text-anchor="middle" class="small">34.1</text>
<text x="472.5" y="478" text-anchor="middle" class="small">NativeMediapipe</text>
<rect x="655.1" y="202.4" width="65.4" height="245.6" fill="#2f6f9f" rx="3"/>
<text x="687.8" y="195.4" text-anchor="middle" class="small">49.9</text>
<rect x="727.8" y="346.1" width="65.4" height="101.9" fill="#d08a2e" rx="3"/>
<text x="760.5" y="339.1" text-anchor="middle" class="small">20.7</text>
<text x="724.2" y="478" text-anchor="middle" class="small">ExternalBridge</text>
<rect x="710" y="58" width="16" height="16" fill="#2f6f9f"/><text x="732" y="71" class="small">平均 FPS</text>
<rect x="810" y="58" width="16" height="16" fill="#d08a2e"/><text x="832" y="71" class="small">P95(ms)</text>
</svg>
